<svg width="119" height="37" viewBox="0 0 119 37" fill="none" xmlns="http://www.w3.org/2000/svg">
<path d="M8.50039 36.3613C2.8774 36.3613 0.0658976 32.2213 0.0658976 23.9412C0.0658976 20.3574 0.761048 17.4995 2.15135 15.3677C3.54165 13.205 5.6271 12.1237 8.4077 12.1237C9.92159 12.1237 11.142 12.4326 12.0688 13.0506C13.0266 13.6685 13.7681 14.5181 14.2933 15.5994C14.8494 16.6499 15.2511 17.8703 15.4982 19.2606L15.6373 19.2142V5.17218C15.6373 3.90546 16.008 2.83956 16.7495 1.97449C17.5219 1.07851 18.6341 0.630529 20.0862 0.630529C21.5074 0.630529 22.5579 1.07851 23.2376 1.97449C23.9482 2.83956 24.3035 3.93636 24.3035 5.26487V26.1194C24.3035 27.1698 24.3807 28.143 24.5352 29.039C24.7206 29.9041 24.8596 30.7692 24.9523 31.6342C25.045 32.8083 24.7978 33.8278 24.2108 34.6929C23.6547 35.5271 22.6506 36.0678 21.1985 36.3149C19.3138 36.6239 17.9081 36.2995 16.9812 35.3417C16.0853 34.3839 15.6373 32.9628 15.6373 31.0781V29.3634H14.7567C14.7567 31.6188 14.1852 33.3489 13.042 34.5539C11.9298 35.7588 10.4159 36.3613 8.50039 36.3613ZM7.80524 23.5242C7.80524 24.4819 8.09875 25.1925 8.68576 25.6559C9.27278 26.1194 10.3232 26.3511 11.8371 26.3511C13.3819 26.3511 14.4478 26.1194 15.0348 25.6559C15.6218 25.1925 15.9153 24.4819 15.9153 23.5242C15.9153 22.5355 15.6218 21.8249 15.0348 21.3924C14.4787 20.9289 13.4282 20.6972 11.8835 20.6972C10.3387 20.6972 9.27278 20.9289 8.68576 21.3924C8.09875 21.8249 7.80524 22.5355 7.80524 23.5242ZM31.7673 36.3613C30.3152 36.3613 29.1875 35.9442 28.3842 35.11C27.5809 34.2758 27.1793 33.2254 27.1793 31.9586V16.758C27.1793 15.4295 27.5809 14.3327 28.3842 13.4676C29.1875 12.5717 30.3152 12.1237 31.7673 12.1237C33.2194 12.1237 34.3316 12.5717 35.104 13.4676C35.8764 14.3327 36.2626 15.3986 36.2626 16.6653V17.6385H37.1431C37.2667 16.0011 37.8846 14.6571 38.9969 13.6067C40.1091 12.5562 41.4222 12.031 42.936 12.031C44.4499 12.031 45.6394 12.4944 46.5045 13.4213C47.4005 14.3482 47.8484 15.584 47.8484 17.1288C47.8484 18.5809 47.4314 19.7858 46.5972 20.7436C45.763 21.7013 44.6971 22.1802 43.3995 22.1802C42.3181 22.1802 41.4067 21.933 40.6652 21.4387C39.9546 20.9135 39.4294 20.311 39.0895 19.6313C38.1009 19.5077 37.3748 19.6159 36.9114 19.9557C36.4789 20.2647 36.2626 20.898 36.2626 21.8558V31.9586C36.2626 33.2254 35.8764 34.2758 35.104 35.11C34.3316 35.9442 33.2194 36.3613 31.7673 36.3613ZM48.1743 24.312C48.1743 21.8712 48.6532 19.724 49.6109 17.8703C50.5996 16.0165 51.9899 14.5644 53.7818 13.514C55.6047 12.4635 57.7674 11.9383 60.2699 11.9383C62.2163 11.9383 63.9619 12.2936 65.5067 13.0042C67.0824 13.7148 68.3182 14.6726 69.2142 15.8775C70.1102 17.0515 70.5581 18.3491 70.5581 19.7703C70.5581 21.2533 70.1256 22.3038 69.2605 22.9217C68.3955 23.5396 67.1133 23.8486 65.414 23.8486H55.6819C55.6819 24.6518 55.9909 25.3161 56.6088 25.8413C57.2576 26.3665 58.3389 26.6292 59.8528 26.6292C60.6252 26.6292 61.3358 26.5519 61.9846 26.3974C62.6643 26.243 63.344 26.1039 64.0237 25.9804C64.7343 25.8259 65.5222 25.7486 66.3872 25.7486C67.6231 25.7486 68.6426 26.1966 69.4459 27.0926C70.2492 27.9577 70.6508 29.1626 70.6508 30.7074C70.6508 32.5302 69.7085 33.9514 67.8239 34.971C65.9702 35.9905 63.5294 36.5003 60.5016 36.5003C58.3698 36.5003 56.3616 36.0832 54.477 35.249C52.6233 34.4148 51.1094 33.1018 49.9353 31.3098C48.7613 29.487 48.1743 27.1544 48.1743 24.312ZM63.1895 22.3192C63.653 22.3192 63.8075 22.103 63.653 21.6704C63.5294 21.2379 63.1587 20.7899 62.5407 20.3265C61.9228 19.863 61.0269 19.6313 59.8528 19.6313C58.4934 19.6313 57.4739 19.9248 56.7942 20.5118C56.1454 21.0989 55.821 21.7013 55.821 22.3192H63.1895ZM77.1096 36.3613C75.5957 36.3613 74.4526 35.9596 73.6802 35.1563C72.9387 34.3531 72.5679 33.3489 72.5679 32.144V5.26487C72.5679 3.93636 72.9387 2.83956 73.6802 1.97449C74.4526 1.07851 75.5957 0.630529 77.1096 0.630529C78.469 0.630529 79.5194 1.07851 80.2609 1.97449C81.0024 2.83956 81.3732 3.90546 81.3732 5.17218V32.144C81.3732 33.3489 81.0024 34.3531 80.2609 35.1563C79.5194 35.9596 78.469 36.3613 77.1096 36.3613ZM88.6502 36.3613C87.1363 36.3613 85.9931 35.9596 85.2208 35.1563C84.4793 34.3531 84.1085 33.3489 84.1085 32.144V5.26487C84.1085 3.93636 84.4793 2.83956 85.2208 1.97449C85.9931 1.07851 87.1363 0.630529 88.6502 0.630529C90.0096 0.630529 91.06 1.07851 91.8015 1.97449C92.543 2.83956 92.9138 3.90546 92.9138 5.17218V32.144C92.9138 33.3489 92.543 34.3531 91.8015 35.1563C91.06 35.9596 90.0096 36.3613 88.6502 36.3613ZM106.925 36.454C103.31 36.454 100.421 35.3881 98.2584 33.2563C96.1267 31.0936 95.0608 28.0504 95.0608 24.1266C95.0608 21.7168 95.5551 19.6004 96.5437 17.7776C97.5324 15.9547 98.9073 14.5335 100.668 13.514C102.46 12.4635 104.546 11.9383 106.925 11.9383C109.582 11.9383 111.791 12.4635 113.552 13.514C115.313 14.5335 116.626 15.9547 117.491 17.7776C118.387 19.6004 118.835 21.7168 118.835 24.1266C118.835 28.0504 117.846 31.0936 115.869 33.2563C113.923 35.3881 110.941 36.454 106.925 36.454ZM100.576 23.3388C100.576 24.2965 101.054 24.9762 102.012 25.3779C102.97 25.7486 104.607 25.934 106.925 25.934C109.242 25.934 110.879 25.7486 111.837 25.3779C112.795 24.9762 113.274 24.2965 113.274 23.3388C113.274 22.4119 112.795 21.7631 111.837 21.3924C110.879 21.0216 109.242 20.8362 106.925 20.8362C104.607 20.8362 102.97 21.0216 102.012 21.3924C101.054 21.7631 100.576 22.4119 100.576 23.3388Z" fill="#040404"/>
</svg>
