<svg width="256" height="57" viewBox="0 0 256 57" fill="none" xmlns="http://www.w3.org/2000/svg">
<path d="M56.4131 0.734903C44.6703 0.448478 40.6437 2.06409 39.6011 2.63694C39.2551 2.82491 38.909 3.01287 38.5585 3.19189C35.0262 4.96862 32.2309 7.05415 30.0379 9.35449C27.8448 7.05862 25.0495 4.96862 21.5172 3.19189C21.1667 3.01735 20.8207 2.82491 20.4746 2.63694C19.432 2.06857 15.4054 0.448478 3.66258 0.734903C1.66275 0.784132 0.0673828 2.41765 0.0673828 4.40919V10.7956C0.0673828 12.9124 1.86049 14.5952 3.98166 14.4654C10.7901 14.0447 23.9844 18.6006 22.7621 32.9039C22.7531 32.9845 22.7486 33.0695 22.7486 33.1546C22.7351 33.987 22.3981 40.1004 15.7514 43.6538C14.237 44.4639 13.5044 46.2227 13.9673 47.8696L15.6256 53.7816C16.1244 55.5628 17.8726 56.6951 19.7107 56.431L29.3817 55.0392C29.6109 55.0079 29.8311 54.9541 30.0468 54.8781C30.2626 54.9497 30.4828 55.0034 30.712 55.0392L40.383 56.431C42.2211 56.6951 43.9693 55.5628 44.4681 53.7816L46.1264 47.8696C46.5893 46.2227 45.8522 44.4639 44.3423 43.6538C37.6956 40.1004 37.3631 33.987 37.3451 33.1546C37.3451 33.0695 37.3361 32.989 37.3316 32.9039C36.1092 18.5962 49.3036 14.0402 56.112 14.4654C58.2332 14.5952 60.0263 12.9124 60.0263 10.7956V4.40919C60.0083 2.41765 58.413 0.784132 56.4131 0.734903Z" fill="white"/>
<path d="M8.48466 37.6881C13.1706 37.6881 16.9693 33.9051 16.9693 29.2386C16.9693 24.572 13.1706 20.7891 8.48466 20.7891C3.79871 20.7891 0 24.572 0 29.2386C0 33.9051 3.79871 37.6881 8.48466 37.6881Z" fill="white"/>
<path d="M51.5228 37.6881C56.2087 37.6881 60.0074 33.9051 60.0074 29.2386C60.0074 24.572 56.2087 20.7891 51.5228 20.7891C46.8368 20.7891 43.0381 24.572 43.0381 29.2386C43.0381 33.9051 46.8368 37.6881 51.5228 37.6881Z" fill="white"/>
<path d="M201.946 28.7188C201.946 21.9475 201.946 15.1763 201.946 8.40504C201.946 7.33543 202.05 6.27924 202.427 5.2678C203.308 2.9227 204.98 1.54429 207.483 1.19073C208.615 1.02962 209.748 1.02514 210.862 1.30709C212.754 1.78148 213.999 3.01669 214.826 4.71733C215.271 5.63031 215.464 6.61041 215.514 7.62185C215.523 7.78744 215.518 7.95303 215.518 8.11415C215.518 21.8446 215.518 35.5796 215.518 49.31C215.518 50.4154 215.348 51.4806 214.853 52.4786C213.932 54.3448 212.44 55.4413 210.373 55.7546C209.006 55.9604 207.654 55.9023 206.319 55.5398C204.036 54.9132 202.701 53.3871 202.135 51.1405C201.964 50.4736 201.942 49.7889 201.942 49.0997C201.946 42.315 201.946 35.5169 201.946 28.7188Z" fill="white"/>
<path d="M197.723 28.7462C197.723 35.607 197.723 42.4678 197.723 49.324C197.723 50.2997 197.602 51.2485 197.22 52.148C196.379 54.1082 194.919 55.339 192.802 55.7283C191.315 56.0013 189.827 55.9387 188.376 55.5046C186.129 54.8288 184.839 53.2624 184.322 51.0292C184.201 50.51 184.16 49.9775 184.16 49.4449C184.16 35.6741 184.16 21.9034 184.16 8.13264C184.16 6.8482 184.394 5.613 184.987 4.45835C185.944 2.59212 187.49 1.53593 189.553 1.20923C190.721 1.02574 191.89 1.01679 193.045 1.29873C194.802 1.72837 196.024 2.83379 196.869 4.38674C197.498 5.54139 197.728 6.78555 197.728 8.08789C197.723 12.2097 197.728 16.3315 197.728 20.4489C197.723 23.2191 197.723 25.9805 197.723 28.7462Z" fill="white"/>
<path d="M114.188 37.4512C114.188 33.5442 114.184 29.6417 114.193 25.7347C114.193 24.504 114.426 23.3135 115.02 22.217C116.139 20.1584 117.869 19.0037 120.219 18.762C121.293 18.6502 122.358 18.6949 123.405 18.9545C125.198 19.3975 126.466 20.503 127.338 22.0873C127.872 23.0584 128.138 24.1101 128.178 25.2155C128.196 25.7839 128.196 26.3568 128.187 26.9251C128.182 27.1176 128.25 27.1668 128.43 27.1579C128.735 27.1489 129.041 27.1489 129.346 27.1579C129.513 27.1623 129.558 27.0997 129.571 26.943C129.665 25.9808 129.85 25.0365 130.236 24.1459C131.481 21.2817 133.598 19.4199 136.685 18.7397C138.177 18.4085 139.678 18.4801 141.143 18.9366C143.165 19.5631 144.599 20.8923 145.381 22.8212C146.379 25.2827 146.356 27.7844 145.242 30.2056C144.415 32.0136 143.062 33.3339 141.089 33.862C139.161 34.3811 137.26 34.1976 135.485 33.2712C134.285 32.6447 133.386 31.6735 132.721 30.5054C132.591 30.2772 132.452 30.1877 132.191 30.1698C131.553 30.1295 130.919 30.1206 130.29 30.2504C129.212 30.4696 128.564 31.1096 128.34 32.1792C128.236 32.676 128.191 33.1817 128.196 33.6919C128.196 38.8028 128.196 43.9092 128.2 49.0201C128.2 49.9778 128.093 50.9177 127.742 51.8172C126.852 54.0773 125.198 55.3975 122.785 55.7556C121.432 55.9569 120.089 55.9301 118.772 55.5363C116.305 54.7933 114.885 53.1017 114.345 50.6357C114.229 50.1031 114.197 49.5571 114.202 49.0112C114.188 45.1623 114.188 41.309 114.188 37.4512Z" fill="white"/>
<path d="M255.372 34.6054C255.25 34.3413 255.318 34.0594 255.282 33.7864C255.057 32.1126 254.675 30.4746 254.073 28.8948C252.19 23.9763 248.685 20.7899 243.642 19.2727C241.854 18.7357 240.007 18.5164 238.142 18.4493C236.196 18.3776 234.268 18.494 232.371 18.9415C228.066 19.9485 224.592 22.2041 222.071 25.8426C220.098 28.6889 219.146 31.8888 218.898 35.3125C218.791 36.8207 218.822 38.3244 218.957 39.8326C219.105 41.4661 219.397 43.0683 219.901 44.6347C221.199 48.676 223.653 51.7864 227.428 53.8182C230.03 55.2235 232.843 55.85 235.778 55.9888C237.346 56.0648 238.91 56.0201 240.474 55.8455C242.191 55.6531 243.867 55.304 245.485 54.6998C247.543 53.9301 249.368 52.8023 250.855 51.1777C253.668 48.121 254.909 44.4199 255.304 40.3741C255.322 40.1996 255.273 40.0161 255.381 39.855C255.372 38.1051 255.372 36.3553 255.372 34.6054ZM244.716 39.0181C244.042 39.2956 243.332 39.4388 242.613 39.5462C240.389 39.8863 238.146 39.8953 235.904 39.8684C234.475 39.8505 233.054 39.7655 231.639 39.5507C230.996 39.4522 230.363 39.318 229.747 39.1076C229.495 39.0181 229.253 38.9107 229.019 38.7809C227.401 37.8993 227.082 36.2926 227.468 34.9142C227.666 34.2115 228.129 33.6969 228.745 33.312C229.392 32.9092 230.111 32.7033 230.848 32.5467C232.259 32.2469 233.697 32.1529 235.135 32.0992C235.796 32.0768 236.461 32.0947 237.122 32.0947C238.56 32.0634 240.002 32.1036 241.431 32.2513C242.469 32.3587 243.503 32.5064 244.496 32.851C244.946 33.0032 245.368 33.2046 245.746 33.491C246.469 34.037 246.842 34.771 246.891 35.6705C246.995 37.4741 246.029 38.4811 244.716 39.0181Z" fill="white"/>
<path d="M110.772 48.8898C110.7 47.8023 110.543 46.7192 110.314 45.6541C109.914 43.7834 109.752 41.8993 109.752 39.9927C109.752 34.9579 109.752 29.9276 109.752 24.8928C109.752 19.3791 109.752 13.861 109.752 8.34732C109.752 8.06985 109.757 7.78789 109.739 7.51042C109.649 6.19018 109.316 4.94603 108.602 3.80928C107.734 2.42639 106.525 1.53579 104.903 1.23146C104.099 1.0793 103.285 1.05692 102.467 1.11958C99.7484 1.32992 97.8834 2.69491 96.8857 5.2235C96.5127 6.16781 96.4049 7.15687 96.4049 8.1683C96.4094 15.1544 96.4049 22.1404 96.4049 29.1265C96.4049 29.2295 96.3959 29.3279 96.4049 29.4308C96.4138 29.5383 96.3689 29.6099 96.2655 29.6233C96.1622 29.6367 96.1577 29.5338 96.1442 29.4667C96.0813 29.1802 96.0319 28.8938 95.9689 28.6119C95.5375 26.6561 94.8544 24.7899 93.7848 23.0892C92.4232 20.9142 90.5042 19.4776 87.9516 18.9674C86.1855 18.6138 84.4059 18.6183 82.6308 18.945C80.0512 19.4194 77.921 20.6636 76.2942 22.7267C75.1752 24.1454 74.3753 25.7387 73.7821 27.4348C72.9057 29.9455 72.5282 32.5457 72.4249 35.1907C72.3665 36.6989 72.3844 38.2071 72.4743 39.7153C72.5867 41.6307 72.8159 43.5238 73.2563 45.3901C73.6787 47.1713 74.2854 48.8898 75.2291 50.4696C76.5728 52.7207 78.4378 54.3498 80.95 55.1956C83.0127 55.8893 85.1384 56.0459 87.2865 55.7327C89.3313 55.4373 91.084 54.5512 92.4816 53.0072C93.5377 51.8436 94.2073 50.4786 94.5938 48.9704C94.8949 47.7978 95.0162 46.6029 95.0342 45.3945C95.0387 45.2021 95.0836 45.126 95.2903 45.135C95.569 45.1529 95.8521 45.135 96.1307 45.1394C96.3914 45.1439 96.3959 45.1484 96.3959 45.4259C96.4004 46.124 96.3959 46.8222 96.3959 47.5159C96.3959 48.2275 96.4093 48.9346 96.4992 49.6417C96.634 50.6889 96.8812 51.7048 97.3441 52.667C98.144 54.3229 99.4068 55.406 101.231 55.7998C102.225 56.0146 103.231 56.0191 104.233 55.9027C105.285 55.7819 106.314 55.5581 107.294 55.1419C108.539 54.6138 109.469 53.759 110.062 52.5417C110.633 51.3871 110.853 50.1653 110.772 48.8898ZM96.697 37.4239C96.3779 38.9008 95.4297 39.7735 93.9871 40.1539C92.8591 40.4537 91.7041 40.5164 90.5312 40.5343C89.4167 40.5119 88.2977 40.4671 87.2101 40.1673C87.0618 40.127 86.918 40.0823 86.7742 40.033C85.4889 39.6034 84.7205 38.7038 84.4463 37.4015C84.2576 36.5243 84.2756 35.6382 84.4913 34.761C84.7609 33.678 85.4215 32.9216 86.4462 32.4786C87.1517 32.1698 87.9022 32.0266 88.6662 31.9505C90.1178 31.8073 91.5648 31.8028 93.0119 32.0131C93.6545 32.1071 94.2882 32.2548 94.8724 32.5457C95.7802 32.9932 96.3779 33.7004 96.6385 34.6715C96.8812 35.5845 96.8992 36.5064 96.697 37.4239Z" fill="white"/>
<path d="M181.167 46.2894C181.086 45.1303 180.848 44.0025 180.273 42.9776C179.257 41.1741 177.774 39.9926 175.68 39.6838C174.561 39.5182 173.442 39.6032 172.327 39.7375C171.204 39.8717 170.094 40.1134 168.988 40.3551C167.595 40.6594 166.202 40.9593 164.764 40.9548C163.537 40.9503 162.319 40.8921 161.133 40.5386C160.095 40.2298 159.245 39.6703 158.675 38.7305C158.338 38.1756 158.167 37.5759 158.14 36.9269C158.131 36.7479 158.185 36.6629 158.373 36.6853C158.45 36.6942 158.526 36.6853 158.603 36.6853C161.214 36.6853 163.829 36.6853 166.44 36.6853C168.696 36.6853 170.952 36.6853 173.208 36.6853C174.682 36.6853 176.129 36.542 177.531 36.0542C179.396 35.4008 180.556 34.1432 180.897 32.1875C181.275 30.0348 181.005 27.9717 179.981 26.0249C178.916 24.0155 177.37 22.4446 175.451 21.2318C173.01 19.6878 170.341 18.8106 167.465 18.5421C164.804 18.2914 162.162 18.4078 159.578 19.097C153.767 20.6455 149.83 24.2661 147.759 29.8782C147.004 31.9279 146.671 34.0627 146.581 36.2422C146.482 38.6231 146.64 40.9816 147.224 43.2954C148.379 47.8782 151.044 51.3421 155.196 53.6246C158.063 55.1999 161.191 55.9205 164.454 56.0592C166.238 56.1353 168.022 56.0637 169.797 55.8444C171.42 55.643 173.01 55.3163 174.552 54.7658C176.057 54.2288 177.482 53.5306 178.713 52.4923C179.76 51.6151 180.524 50.541 180.924 49.2298C181.216 48.2675 181.239 47.2785 181.167 46.2894ZM158.36 34.0761C158.396 33.6241 158.549 33.2079 158.782 32.8275C159.394 31.8339 160.234 31.1134 161.344 30.7106C162.526 30.2855 163.748 30.1915 164.993 30.2318C165.964 30.2631 166.921 30.3884 167.82 30.7867C168.723 31.1895 169.447 31.816 170.04 32.5948C170.265 32.8901 170.417 33.2258 170.48 33.5972C170.557 34.0358 170.408 34.2462 169.968 34.3133C169.806 34.3402 169.64 34.3446 169.474 34.3446C167.69 34.3446 165.905 34.3446 164.126 34.3446C162.355 34.3446 160.585 34.3446 158.814 34.3446C158.751 34.3446 158.688 34.3446 158.621 34.3446C158.338 34.3446 158.338 34.3402 158.36 34.0761Z" fill="white"/>
</svg>
