<svg width="256" height="56" viewBox="0 0 256 56" fill="none" xmlns="http://www.w3.org/2000/svg">
<path d="M56.4132 0.0338712C44.6703 -0.253745 40.6437 1.36859 39.6011 1.94382C39.2551 2.13257 38.909 2.32132 38.5585 2.50108C35.0262 4.2852 32.231 6.37941 30.0379 8.68933C27.8448 6.3839 25.0495 4.2852 21.5173 2.50108C21.1667 2.32582 20.8207 2.13257 20.4747 1.94382C19.432 1.37308 15.4054 -0.253745 3.66261 0.0338712C1.66278 0.0833053 0.0674133 1.72362 0.0674133 3.72345V10.1364C0.0674133 12.2621 1.86052 13.9518 3.98169 13.8215C10.7901 13.399 23.9845 17.9739 22.7621 32.3368C22.7531 32.4177 22.7486 32.503 22.7486 32.5884C22.7351 33.4243 22.3981 39.5631 15.7515 43.1314C14.237 43.9448 13.5045 45.7109 13.9674 47.3647L15.6256 53.3013C16.1245 55.0899 17.8726 56.2269 19.7107 55.9617L29.3818 54.5641C29.611 54.5326 29.8312 54.4787 30.0469 54.4023C30.2626 54.4742 30.4828 54.5282 30.712 54.5641L40.3831 55.9617C42.2211 56.2269 43.9693 55.0899 44.4681 53.3013L46.1264 47.3647C46.5893 45.7109 45.8523 43.9448 44.3423 43.1314C37.6957 39.5631 37.3631 33.4243 37.3451 32.5884C37.3451 32.503 37.3361 32.4222 37.3316 32.3368C36.1093 17.9694 49.3037 13.3945 56.1121 13.8215C58.2332 13.9518 60.0263 12.2621 60.0263 10.1364V3.72345C60.0084 1.72362 58.413 0.0833053 56.4132 0.0338712Z" fill="white"/>
<path d="M8.48466 37.1412C13.1706 37.1412 16.9693 33.3425 16.9693 28.6565C16.9693 23.9706 13.1706 20.1719 8.48466 20.1719C3.79871 20.1719 0 23.9706 0 28.6565C0 33.3425 3.79871 37.1412 8.48466 37.1412Z" fill="white"/>
<path d="M51.5229 37.1412C56.2089 37.1412 60.0076 33.3425 60.0076 28.6565C60.0076 23.9706 56.2089 20.1719 51.5229 20.1719C46.837 20.1719 43.0383 23.9706 43.0383 28.6565C43.0383 33.3425 46.837 37.1412 51.5229 37.1412Z" fill="white"/>
<path d="M201.946 28.1331C201.946 21.3337 201.946 14.5343 201.946 7.73484C201.946 6.66077 202.05 5.60019 202.427 4.58454C203.308 2.22969 204.98 0.845533 207.483 0.490507C208.615 0.328723 209.748 0.324226 210.862 0.607348C212.754 1.08371 213.999 2.32406 214.826 4.03178C215.271 4.94856 215.464 5.93274 215.514 6.94839C215.523 7.11466 215.518 7.28095 215.518 7.44273C215.518 21.2303 215.518 35.0224 215.518 48.81C215.518 49.92 215.347 50.9896 214.853 51.9918C213.932 53.8658 212.44 54.9668 210.372 55.2814C209.006 55.4881 207.654 55.4297 206.319 55.0657C204.036 54.4365 202.701 52.9041 202.135 50.6481C201.964 49.9785 201.942 49.2909 201.942 48.5988C201.946 41.7859 201.946 34.9595 201.946 28.1331Z" fill="white"/>
<path d="M197.723 28.1612C197.723 35.0505 197.723 41.9398 197.723 48.8246C197.723 49.8043 197.601 50.757 197.219 51.6603C196.379 53.6287 194.918 54.8645 192.802 55.2555C191.314 55.5297 189.827 55.4667 188.375 55.0308C186.128 54.3522 184.838 52.7793 184.322 50.5368C184.2 50.0155 184.16 49.4807 184.16 48.9459C184.16 35.1179 184.16 21.2898 184.16 7.46179C184.16 6.17202 184.393 4.93167 184.987 3.77222C185.944 1.89822 187.49 0.837641 189.553 0.509579C190.721 0.325324 191.889 0.316335 193.044 0.599457C194.802 1.03088 196.024 2.1409 196.869 3.70032C197.498 4.85977 197.727 6.1091 197.727 7.41686C197.723 11.5558 197.727 15.6948 197.727 19.8293C197.723 22.6111 197.723 25.3839 197.723 28.1612Z" fill="white"/>
<path d="M114.188 36.902C114.188 32.9788 114.183 29.06 114.192 25.1367C114.192 23.9009 114.426 22.7055 115.019 21.6044C116.138 19.5372 117.869 18.3777 120.219 18.1351C121.293 18.0227 122.358 18.0677 123.405 18.3283C125.198 18.7732 126.466 19.8832 127.337 21.4741C127.872 22.4493 128.137 23.5054 128.178 24.6154C128.196 25.1862 128.196 25.7614 128.187 26.3321C128.182 26.5254 128.25 26.5748 128.429 26.5658C128.735 26.5568 129.041 26.5568 129.346 26.5658C129.512 26.5703 129.557 26.5074 129.571 26.3501C129.665 25.3839 129.849 24.4357 130.236 23.5414C131.481 20.6652 133.598 18.7957 136.685 18.1126C138.177 17.78 139.678 17.8519 141.143 18.3103C143.165 18.9395 144.599 20.2742 145.381 22.2111C146.378 24.6828 146.356 27.195 145.241 29.6262C144.415 31.4418 143.062 32.7675 141.089 33.2978C139.161 33.8191 137.26 33.6349 135.485 32.7046C134.285 32.0755 133.386 31.1003 132.721 29.9273C132.591 29.6981 132.452 29.6083 132.191 29.5903C131.553 29.5498 130.919 29.5408 130.29 29.6712C129.211 29.8914 128.564 30.534 128.34 31.6081C128.236 32.1069 128.191 32.6147 128.196 33.1271C128.196 38.2592 128.196 43.3869 128.2 48.519C128.2 49.4807 128.092 50.4245 127.742 51.3278C126.852 53.5972 125.198 54.923 122.785 55.2825C121.432 55.4847 120.089 55.4578 118.772 55.0623C116.305 54.3163 114.884 52.6176 114.345 50.1414C114.228 49.6066 114.197 49.0583 114.201 48.51C114.188 44.6452 114.188 40.7759 114.188 36.902Z" fill="white"/>
<path d="M255.371 34.0443C255.25 33.7791 255.317 33.496 255.281 33.2219C255.057 31.5411 254.675 29.8963 254.073 28.3099C252.19 23.371 248.684 20.1713 243.642 18.6478C241.853 18.1085 240.006 17.8883 238.141 17.8209C236.195 17.749 234.267 17.8659 232.371 18.3153C228.066 19.3264 224.592 21.5914 222.071 25.245C220.098 28.1032 219.145 31.3164 218.898 34.7543C218.79 36.2688 218.822 37.7788 218.956 39.2933C219.105 40.9336 219.397 42.5424 219.9 44.1153C221.199 48.1734 223.653 51.2967 227.428 53.337C230.03 54.7481 232.843 55.3773 235.777 55.5166C237.346 55.593 238.91 55.5481 240.474 55.3728C242.19 55.1796 243.867 54.829 245.484 54.2223C247.543 53.4494 249.367 52.3169 250.855 50.6856C253.668 47.6162 254.908 43.8996 255.304 39.837C255.322 39.6618 255.272 39.4775 255.38 39.3157C255.371 37.5586 255.371 35.8014 255.371 34.0443ZM244.716 38.4754C244.042 38.754 243.332 38.8978 242.613 39.0056C240.388 39.3472 238.146 39.3562 235.903 39.3292C234.474 39.3112 233.054 39.2259 231.638 39.0101C230.996 38.9113 230.362 38.7765 229.747 38.5652C229.495 38.4754 229.252 38.3675 229.018 38.2372C227.401 37.3519 227.082 35.7385 227.468 34.3544C227.666 33.6488 228.129 33.132 228.744 32.7455C229.391 32.341 230.111 32.1343 230.848 31.977C232.259 31.6759 233.697 31.5816 235.135 31.5276C235.795 31.5052 236.461 31.5231 237.121 31.5231C238.559 31.4917 240.002 31.5321 241.431 31.6804C242.469 31.7883 243.503 31.9366 244.496 32.2826C244.945 32.4354 245.368 32.6376 245.745 32.9253C246.469 33.4735 246.842 34.2105 246.891 35.1138C246.994 36.9249 246.028 37.9361 244.716 38.4754Z" fill="white"/>
<path d="M110.772 48.3885C110.7 47.2965 110.543 46.2089 110.314 45.1394C109.914 43.2609 109.752 41.3689 109.752 39.4544C109.752 34.3987 109.752 29.3474 109.752 24.2917C109.752 18.7551 109.752 13.2139 109.752 7.67734C109.752 7.39871 109.756 7.11558 109.738 6.83695C109.648 5.51122 109.316 4.26189 108.601 3.12042C107.734 1.73177 106.525 0.837458 104.903 0.531866C104.098 0.37907 103.285 0.3566 102.467 0.419516C99.7481 0.630734 97.8831 2.0014 96.8855 4.54052C96.5125 5.48875 96.4046 6.48193 96.4046 7.49757C96.4091 14.5127 96.4046 21.5279 96.4046 28.543C96.4046 28.6464 96.3956 28.7452 96.4046 28.8486C96.4136 28.9564 96.3687 29.0283 96.2653 29.0418C96.1619 29.0553 96.1574 28.9519 96.144 28.8845C96.081 28.5969 96.0316 28.3093 95.9687 28.0262C95.5373 26.0623 94.8542 24.1883 93.7846 22.4806C92.4229 20.2965 90.504 18.8539 87.9514 18.3416C86.1853 17.9866 84.4056 17.9911 82.6305 18.3191C80.051 18.7955 77.9208 20.0448 76.294 22.1166C75.175 23.5412 74.375 25.141 73.7818 26.8443C72.9055 29.3654 72.528 31.9764 72.4246 34.6324C72.3662 36.1468 72.3842 37.6613 72.4741 39.1758C72.5864 41.0992 72.8156 43.0002 73.256 44.8742C73.6785 46.6628 74.2852 48.3885 75.2289 49.9749C76.5726 52.2354 78.4376 53.8712 80.9497 54.7206C83.0125 55.4171 85.1382 55.5744 87.2863 55.2598C89.3311 54.9632 91.0837 54.0734 92.4813 52.523C93.5374 51.3546 94.207 49.9839 94.5935 48.4694C94.8946 47.292 95.016 46.0921 95.0339 44.8787C95.0384 44.6855 95.0834 44.6091 95.2901 44.618C95.5687 44.636 95.8518 44.618 96.1305 44.6225C96.3911 44.627 96.3956 44.6315 96.3956 44.9101C96.4001 45.6112 96.3956 46.3123 96.3956 47.0089C96.3956 47.7234 96.4091 48.4335 96.499 49.1435C96.6338 50.1951 96.881 51.2152 97.3439 52.1814C98.1438 53.8442 99.4066 54.9318 101.231 55.3272C102.224 55.543 103.231 55.5475 104.233 55.4306C105.285 55.3093 106.314 55.0846 107.294 54.6666C108.538 54.1363 109.469 53.278 110.062 52.0556C110.633 50.8962 110.853 49.6693 110.772 48.3885ZM96.6967 36.8749C96.3776 38.3579 95.4294 39.2342 93.9868 39.6162C92.8588 39.9173 91.7039 39.9802 90.531 39.9982C89.4164 39.9757 88.2974 39.9308 87.2099 39.6297C87.0616 39.5892 86.9178 39.5443 86.774 39.4949C85.4887 39.0635 84.7202 38.1602 84.4461 36.8524C84.2573 35.9716 84.2753 35.0818 84.491 34.2009C84.7607 33.1134 85.4213 32.3539 86.4459 31.909C87.1515 31.5989 87.902 31.4551 88.6659 31.3787C90.1175 31.2349 91.5646 31.2304 93.0116 31.4416C93.6543 31.536 94.2879 31.6843 94.8722 31.9764C95.7799 32.4258 96.3776 33.1359 96.6383 34.1111C96.881 35.0278 96.899 35.9536 96.6967 36.8749Z" fill="white"/>
<path d="M181.167 45.7779C181.086 44.614 180.848 43.4815 180.273 42.4524C179.257 40.6413 177.774 39.4549 175.68 39.1448C174.561 38.9785 173.442 39.0639 172.327 39.1987C171.204 39.3335 170.094 39.5762 168.988 39.8189C167.595 40.1245 166.202 40.4256 164.764 40.4211C163.537 40.4166 162.319 40.3582 161.133 40.0031C160.095 39.6931 159.245 39.1313 158.674 38.1876C158.337 37.6303 158.167 37.0281 158.14 36.3765C158.131 36.1967 158.185 36.1113 158.373 36.1338C158.45 36.1428 158.526 36.1338 158.602 36.1338C161.214 36.1338 163.829 36.1338 166.44 36.1338C168.696 36.1338 170.952 36.1338 173.208 36.1338C174.682 36.1338 176.129 35.99 177.531 35.5002C179.396 34.844 180.556 33.5812 180.897 31.6173C181.275 29.4557 181.005 27.384 179.98 25.4291C178.915 23.4113 177.369 21.8339 175.451 20.616C173.01 19.0656 170.341 18.1848 167.465 17.9151C164.804 17.6635 162.162 17.7803 159.578 18.4724C153.767 20.0273 149.83 23.663 147.759 29.2984C147.004 31.3567 146.671 33.5003 146.581 35.6889C146.482 38.0797 146.639 40.4481 147.224 42.7715C148.379 47.3733 151.044 50.8517 155.196 53.1436C158.063 54.7255 161.191 55.449 164.454 55.5884C166.238 55.6648 168.022 55.5928 169.797 55.3726C171.419 55.1704 173.01 54.8423 174.552 54.2896C176.057 53.7503 177.482 53.0492 178.713 52.0066C179.76 51.1258 180.524 50.0472 180.924 48.7305C181.216 47.7643 181.239 46.7711 181.167 45.7779ZM158.36 33.5138C158.396 33.0599 158.549 32.642 158.782 32.26C159.393 31.2623 160.234 30.5388 161.344 30.1343C162.526 29.7074 163.748 29.613 164.993 29.6535C165.964 29.6849 166.921 29.8108 167.82 30.2107C168.723 30.6152 169.447 31.2443 170.04 32.0263C170.264 32.3229 170.417 32.66 170.48 33.033C170.557 33.4734 170.408 33.6846 169.968 33.752C169.806 33.779 169.64 33.7835 169.473 33.7835C167.689 33.7835 165.905 33.7835 164.126 33.7835C162.355 33.7835 160.584 33.7835 158.814 33.7835C158.751 33.7835 158.688 33.7835 158.62 33.7835C158.337 33.7835 158.337 33.779 158.36 33.5138Z" fill="white"/>
</svg>
