<svg width="110" height="65" viewBox="0 0 110 65" fill="none" xmlns="http://www.w3.org/2000/svg">
<path d="M22.3876 46.0609C18.787 46.3759 16.7547 43.8824 16.2909 38.5804C16.0901 36.2855 16.3751 34.4165 17.146 32.9736C17.9151 31.5108 19.1899 30.7016 20.9704 30.5458C21.9398 30.461 22.7386 30.5904 23.3667 30.9342C24.0146 31.2762 24.537 31.7787 24.9339 32.4417C25.3489 33.0832 25.6744 33.8422 25.9106 34.7186L25.997 34.6811L25.2103 25.6894C25.1394 24.8783 25.3171 24.175 25.7434 23.5795C26.1878 22.9625 26.8749 22.6134 27.8047 22.532C28.7148 22.4524 29.4125 22.6804 29.898 23.2161C30.4015 23.7302 30.6904 24.4126 30.7648 25.2633L31.9332 38.6173C31.992 39.2899 32.096 39.9088 32.2451 40.4738C32.4123 41.0174 32.5498 41.5635 32.6576 42.1123C32.7827 42.8589 32.6815 43.5256 32.3541 44.1124C32.0447 44.6777 31.4321 45.0802 30.5161 45.3198C29.3266 45.6232 28.4083 45.4942 27.7611 44.9329C27.1337 44.3698 26.7672 43.4848 26.6616 42.278L26.5656 41.18L26.0018 41.2294C26.1281 42.6736 25.859 43.8135 25.1945 44.6491C24.5498 45.4829 23.6142 45.9535 22.3876 46.0609ZM21.2233 37.8797C21.277 38.493 21.5047 38.9316 21.9066 39.1954C22.3084 39.4593 22.994 39.5488 23.9634 39.464C24.9526 39.3775 25.6222 39.1694 25.9721 38.8398C26.322 38.5101 26.4702 38.0386 26.4165 37.4254C26.3611 36.7923 26.1334 36.3537 25.7332 36.1096C25.3512 35.844 24.6656 35.7545 23.6764 35.841C22.6872 35.9276 22.0176 36.1357 21.6677 36.4653C21.3161 36.7752 21.1679 37.2466 21.2233 37.8797ZM37.2863 44.7574C36.3565 44.8387 35.611 44.6348 35.0499 44.1457C34.4888 43.6565 34.1728 43.0064 34.1018 42.1952L33.2502 32.4617C33.1758 31.611 33.3715 30.8862 33.8374 30.2872C34.3016 29.6685 34.9986 29.3185 35.9285 29.2371C36.8583 29.1558 37.5956 29.3803 38.1404 29.9108C38.6834 30.4215 38.9904 31.0824 39.0614 31.8935L39.1159 32.5167L39.6798 32.4673C39.6672 31.4119 39.9875 30.5167 40.6409 29.7817C41.2943 29.0468 42.1056 28.6369 43.075 28.5521C44.0444 28.4673 44.8321 28.6974 45.4379 29.2424C46.0636 29.7857 46.4197 30.552 46.5062 31.5412C46.5876 32.471 46.388 33.2659 45.9075 33.926C45.427 34.586 44.7713 34.9523 43.9404 35.025C43.248 35.0856 42.6505 34.9784 42.148 34.7034C41.6635 34.4069 41.2935 34.0505 41.0378 33.6343C40.3978 33.6106 39.9389 33.7205 39.6612 33.9641C39.4015 34.1862 39.2985 34.6038 39.3522 35.2171L39.9182 41.6864C39.9891 42.4975 39.8007 43.1918 39.3528 43.7692C38.905 44.3466 38.2161 44.676 37.2863 44.7574ZM47.1173 36.1226C46.9806 34.5597 47.1669 33.1579 47.6764 31.9172C48.2056 30.6748 49.0145 29.6671 50.1031 28.8941C51.2115 28.1193 52.5669 27.6618 54.1694 27.5216C55.4158 27.4126 56.5535 27.5423 57.5824 27.9108C58.6312 28.2775 59.4762 28.8216 60.1174 29.543C60.7569 30.2446 61.1165 31.0504 61.1961 31.9604C61.2792 32.91 61.0611 33.6069 60.5418 34.051C60.0224 34.4952 59.2187 34.7648 58.1306 34.86L51.8988 35.4053C51.9438 35.9196 52.1788 36.3277 52.6039 36.6294C53.0488 36.9294 53.7559 37.0369 54.7253 36.9521C55.2199 36.9089 55.6706 36.8196 56.0774 36.6843C56.504 36.5473 56.9315 36.4202 57.3598 36.303C57.8062 36.1643 58.3063 36.0707 58.8602 36.0222C59.6516 35.953 60.3296 36.1827 60.8941 36.7115C61.457 37.2204 61.7816 37.9695 61.8682 38.9586C61.9703 40.1259 61.4465 41.0887 60.2968 41.8471C59.1669 42.6039 57.6326 43.067 55.6938 43.2366C54.3287 43.3561 53.0194 43.2015 51.7659 42.7729C50.5321 42.3426 49.4892 41.5866 48.637 40.5049C47.7831 39.4035 47.2765 37.9427 47.1173 36.1226ZM56.6205 34.0054C56.9173 33.9794 57.0041 33.8323 56.8809 33.564C56.7776 33.2939 56.5151 33.0278 56.0934 32.7657C55.6718 32.5035 55.0851 32.4054 54.3333 32.4711C53.4628 32.5473 52.8264 32.7923 52.4241 33.2063C52.0415 33.6186 51.8675 34.0225 51.9021 34.4182L56.6205 34.0054ZM66.3207 42.2172C65.3513 42.302 64.5968 42.1089 64.0572 41.6378C63.5374 41.1649 63.2438 40.5427 63.1763 39.7712L61.6704 22.5594C61.596 21.7087 61.772 20.9856 62.1983 20.3901C62.6427 19.7731 63.3496 19.4222 64.319 19.3374C65.1895 19.2613 65.8872 19.4893 66.4122 20.0215C66.9355 20.5339 67.2326 21.1956 67.3036 22.0068L68.8146 39.2779C68.8821 40.0494 68.701 40.7132 68.2711 41.2691C67.8413 41.825 67.1912 42.141 66.3207 42.2172ZM73.7106 41.5707C72.7412 41.6555 71.9867 41.4623 71.4471 40.9912C70.9273 40.5184 70.6337 39.8962 70.5662 39.1246L69.0603 21.9129C68.9859 21.0622 69.1618 20.3391 69.5882 19.7436C70.0326 19.1266 70.7395 18.7757 71.7089 18.6909C72.5794 18.6147 73.2771 18.8428 73.8021 19.3749C74.3254 19.8873 74.6225 20.5491 74.6935 21.3602L76.2045 38.6314C76.272 39.4029 76.0908 40.0667 75.661 40.6226C75.2312 41.1785 74.5811 41.4945 73.7106 41.5707ZM85.4177 40.6062C83.103 40.8088 81.1935 40.2881 79.6892 39.0441C78.203 37.7787 77.35 35.8897 77.1301 33.3772C76.9951 31.8341 77.1931 30.4512 77.7241 29.2286C78.255 28.006 79.0558 27.0189 80.1263 26.2674C81.2149 25.4944 82.5209 25.0412 84.0442 24.9079C85.7456 24.7591 87.1896 24.9716 88.3761 25.5456C89.5609 26.0998 90.4813 26.9363 91.1374 28.0551C91.8132 29.1721 92.2186 30.5022 92.3536 32.0453C92.5735 34.5579 92.1109 36.5619 90.9659 38.0576C89.8389 39.5317 87.9895 40.3812 85.4177 40.6062ZM80.6174 32.5638C80.671 33.1771 81.0158 33.5855 81.6516 33.789C82.2856 33.9728 83.3445 33.9997 84.8283 33.8699C86.3121 33.7401 87.3502 33.5297 87.9428 33.2386C88.5335 32.9278 88.8021 32.4657 88.7485 31.8524C88.6965 31.2589 88.3535 30.8703 87.7195 30.6865C87.0854 30.5028 86.0265 30.4758 84.5427 30.6056C83.0589 30.7354 82.0208 30.9459 81.4283 31.2369C80.8358 31.528 80.5655 31.9703 80.6174 32.5638Z" fill="#040404"/>
<path d="M12.5821 11.4273C12.644 12.1346 13.2676 12.6578 13.9749 12.5959L92.7367 5.70514C93.4439 5.64326 93.9672 5.01972 93.9053 4.31242L93.7933 3.032C93.7314 2.3247 94.2546 1.70116 94.9619 1.63928L103.927 0.854951C104.634 0.793071 105.258 1.31629 105.32 2.02358L106.104 10.9885C106.166 11.6958 105.643 12.3194 104.935 12.3812L103.654 12.4933C102.947 12.5552 102.423 13.1788 102.485 13.8861L105.062 43.3411C105.124 44.0484 105.748 44.5716 106.455 44.5097L107.736 44.3976C108.444 44.3357 109.067 44.8589 109.129 45.5662L109.913 54.5312C109.975 55.2385 109.452 55.862 108.745 55.9239L99.7798 56.7082C99.0725 56.7701 98.449 56.2469 98.3871 55.5396L98.2347 53.798C98.1728 53.0907 97.5493 52.5675 96.842 52.6294L17.4401 59.5762C16.7328 59.6381 16.2096 60.2616 16.2714 60.9689L16.3678 62.0703C16.4297 62.7776 15.9065 63.4012 15.1992 63.463L6.23423 64.2474C5.52693 64.3092 4.90339 63.786 4.84151 63.0787L4.05718 54.1138C3.9953 53.4065 4.51851 52.783 5.22581 52.7211L7.14636 52.5531C7.85366 52.4912 8.37687 51.8676 8.31499 51.1603L5.79402 22.3454C5.73214 21.6382 5.10859 21.1149 4.4013 21.1768L3.12088 21.2888C2.41358 21.3507 1.79004 20.8275 1.72816 20.1202L0.943828 11.1553C0.881947 10.448 1.40516 9.82443 2.11246 9.76255L11.0774 8.97822C11.7847 8.91634 12.4082 9.43956 12.4701 10.1469L12.5821 11.4273ZM105.694 50.5645C105.756 51.2718 105.233 51.8953 104.526 51.9572L101.235 52.2451C100.577 52.3026 100.091 52.8826 100.148 53.5405C100.206 54.1984 100.786 54.6851 101.444 54.6276L106.656 54.1715C107.364 54.1096 107.887 53.4861 107.825 52.7788L107.349 47.3361C107.302 46.8053 106.834 46.4126 106.304 46.459C105.773 46.5055 105.38 46.9735 105.426 47.5043L105.694 50.5645ZM6.59487 60.9902C6.65675 61.6975 7.28029 62.2208 7.98759 62.1589L13.5202 61.6748C14.0014 61.6327 14.3573 61.2086 14.3152 60.7274C14.2731 60.2463 13.8489 59.8904 13.3678 59.9325L10.3957 60.1925C9.68839 60.2544 9.06484 59.7312 9.00296 59.0239L8.70715 55.6427C8.64528 54.9356 8.02194 54.4125 7.31487 54.4744C6.6078 54.5363 6.08475 55.1596 6.14661 55.8667L6.59487 60.9902ZM10.7562 56.9344C10.8181 57.6417 11.4417 58.1649 12.149 58.103L12.7902 58.0469C13.4975 57.985 14.0207 57.3615 13.9588 56.6542L13.8312 55.1948C13.7693 54.4875 13.1457 53.9643 12.4384 54.0261L11.7972 54.0822C11.0899 54.1441 10.5667 54.7677 10.6286 55.475L10.7562 56.9344ZM13.2544 19.1118C13.3163 19.8191 12.7931 20.4426 12.0858 20.5045L8.88402 20.7846C8.17672 20.8465 7.65351 21.4701 7.71539 22.1774L10.2364 50.9922C10.2982 51.6995 10.9218 52.2228 11.6291 52.1609L14.1907 51.9368C14.898 51.8749 15.5216 52.3981 15.5835 53.1054L15.8792 56.4862C15.9411 57.1935 16.5647 57.7167 17.272 57.6548L96.6739 50.708C97.3812 50.6462 97.9044 50.0226 97.8425 49.3153L97.6028 46.5747C97.5409 45.8674 98.0641 45.2438 98.7714 45.1819L101.973 44.9018C102.68 44.8399 103.204 44.2164 103.142 43.5091L100.565 14.0541C100.503 13.3468 99.8794 12.8236 99.1721 12.8854L95.9703 13.1656C95.263 13.2274 94.6395 12.7042 94.5776 11.9969L94.2975 8.79515C94.2356 8.08785 93.612 7.56463 92.9048 7.62651L14.143 14.5173C13.4357 14.5792 12.9124 15.2027 12.9743 15.91L13.2544 19.1118ZM99.7639 49.1472C99.8258 49.8545 100.449 50.3777 101.157 50.3159L102.437 50.2038C103.144 50.142 103.668 49.5184 103.606 48.8111L103.534 47.9918C103.472 47.2845 102.849 46.7613 102.141 46.8232L100.861 46.9352C100.154 46.9971 99.6303 47.6206 99.6922 48.3279L99.7639 49.1472ZM7.32329 17.6956C7.38517 18.4029 8.00871 18.9261 8.71601 18.8642L9.9974 18.7521C10.7047 18.6902 11.2279 18.0667 11.166 17.3594L11.0539 16.078C10.992 15.3707 10.3685 14.8475 9.6612 14.9094L8.37981 15.0215C7.67251 15.0834 7.1493 15.7069 7.21118 16.4142L7.32329 17.6956ZM96.331 9.90843C96.3928 10.6157 97.0164 11.1389 97.7237 11.0771L99.0041 10.965C99.7114 10.9032 100.235 10.2796 100.173 9.57232L100.061 8.29094C99.9987 7.58364 99.3752 7.06042 98.6679 7.1223L97.3875 7.23433C96.6802 7.29621 96.157 7.91975 96.2188 8.62705L96.331 9.90843ZM95.8547 4.4648C95.9011 4.9951 96.3686 5.38739 96.8989 5.34099L100.42 5.03292C101.127 4.97104 101.751 5.49425 101.813 6.20155L102.121 9.72382C102.168 10.2547 102.635 10.6473 103.166 10.6009C103.697 10.5545 104.09 10.0865 104.043 9.55563L103.567 4.11297C103.505 3.40567 102.882 2.88246 102.175 2.94434L96.7309 3.42059C96.2006 3.46699 95.8083 3.9345 95.8547 4.4648ZM3.50955 18.3522C3.55595 18.8825 4.02346 19.2748 4.55376 19.2284C5.08406 19.182 5.47635 18.7145 5.42995 18.1842L5.12171 14.6609C5.05983 13.9536 5.58304 13.3301 6.29034 13.2682L9.81358 12.96C10.3439 12.9136 10.7362 12.4461 10.6898 11.9158C10.6434 11.3855 10.1759 10.9932 9.64557 11.0396L4.20193 11.5158C3.49463 11.5777 2.97142 12.2013 3.0333 12.9085L3.50955 18.3522Z" fill="#FDC316"/>
</svg>
