<svg width="285" height="87" viewBox="0 0 285 87" fill="none" xmlns="http://www.w3.org/2000/svg">
<path d="M20.5762 48.4031C19.4466 48.5019 18.4916 48.2554 17.7113 47.6634C16.9536 47.0695 16.5243 46.1964 16.4235 45.0442C16.3247 43.9145 16.5619 42.9832 17.1352 42.25C17.7292 41.4923 18.6587 41.0581 19.9239 40.9474L34.5303 39.6695C35.7955 39.5588 36.7751 39.826 37.4689 40.471C38.1834 41.0915 38.5901 41.9666 38.6889 43.0962C38.7897 44.2485 38.5073 45.1838 37.8417 45.9023C37.1986 46.6187 36.3123 47.0264 35.1826 47.1252C34.4144 47.1924 33.7862 47.1677 33.2979 47.0511C32.8302 46.9099 32.4397 46.7391 32.1262 46.5389C31.8107 46.3161 31.5105 46.1374 31.2256 46.003C30.9387 45.846 30.5919 45.7853 30.1852 45.8208L29.9335 46.4575C30.0417 46.653 30.2256 46.9328 30.4851 47.2972C30.7426 47.6389 31.0037 48.151 31.2683 48.8336C31.531 49.4936 31.7137 50.4111 31.8165 51.5859L32.6733 61.38C32.7544 62.3063 32.4714 63.1051 31.8244 63.7764C31.2 64.4457 30.3907 64.8238 29.3966 64.9108C28.3799 64.9997 27.4947 64.7698 26.741 64.2211C26.0098 63.6704 25.6037 62.9319 25.5227 62.0056L24.6658 52.2115C24.563 51.0367 24.5836 50.1015 24.7277 49.4059C24.8697 48.6877 25.0379 48.138 25.2322 47.7567C25.4471 47.3509 25.5909 47.0424 25.6635 46.8311L25.2712 46.2508C24.8645 46.2863 24.5335 46.4064 24.2782 46.6108C24.021 46.7927 23.7563 47.0207 23.4844 47.295C23.2104 47.5466 22.8554 47.7825 22.4194 48.0028C21.9814 48.2005 21.367 48.3339 20.5762 48.4031ZM50.1583 63.0261C49.0513 63.1229 47.9805 63.1142 46.946 62.9998C45.9342 62.8834 45.0194 62.5764 44.2019 62.0788C43.4049 61.5566 42.733 60.773 42.1863 59.7281C41.6602 58.6586 41.319 57.2314 41.1629 55.4466C41.0225 53.8425 41.1166 52.4455 41.4451 51.2557C41.7735 50.0659 42.2018 49.1064 42.7299 48.3773C43.2806 47.6461 43.7976 47.1797 44.2808 46.9781L44.055 46.349L43.4789 46.3994C42.4396 46.4903 41.5863 46.2349 40.919 45.633C40.2723 45.0066 39.8872 44.1183 39.7638 42.968C39.6424 41.8404 39.857 40.9109 40.4077 40.1798C40.9811 39.4467 41.7873 39.0346 42.8266 38.9437L54.993 37.8793C57.4104 37.6678 58.718 38.6917 58.9156 40.951C59.0046 41.9677 58.782 42.8067 58.248 43.4681C57.7139 44.1295 56.8256 44.5146 55.583 44.6233L48.5679 45.237C47.7319 45.3102 47.3564 45.8325 47.4414 46.804L47.6638 49.3457C48.7717 48.9984 49.9209 48.6019 51.1112 48.1562C52.3242 47.7086 53.4842 47.4364 54.5913 47.3395C55.6531 47.2466 56.4646 47.4147 57.0258 47.8437C57.6076 48.2481 57.933 48.8457 58.0022 49.6364C58.0734 50.4498 57.8586 51.1174 57.3579 51.6393C56.8778 52.1366 56.1078 52.443 55.0479 52.5585C53.9428 52.678 52.7541 52.6226 51.4818 52.3924C50.2096 52.1622 48.9978 51.9723 47.8464 51.8226L48.2348 56.2621C48.2723 56.6914 48.412 56.9865 48.6537 57.1475C48.9161 57.2839 49.2942 57.1825 49.7882 56.8434C50.8605 56.0893 51.9221 55.4728 52.973 54.9939C54.0218 54.4923 55.0659 54.1961 56.1052 54.1052C57.5738 53.9767 58.7144 54.2639 59.5272 54.9668C60.3626 55.6678 60.8346 56.6396 60.9433 57.8822C61.0599 59.2152 60.7432 60.2787 59.9931 61.0729C59.2656 61.865 58.0094 62.3392 56.2246 62.4953L50.1583 63.0261ZM73.159 61.1845C71.8938 61.2952 70.6064 61.2826 69.2969 61.1468C68.0079 60.9864 66.7995 60.7051 65.6716 60.3029C64.5642 59.8762 63.6513 59.33 62.9329 58.6643C62.2125 57.9761 61.8097 57.1462 61.7247 56.1747C61.616 54.9321 61.9244 53.9034 62.65 53.0886C63.3755 52.2739 64.2712 51.8426 65.337 51.7949C66.1749 51.7444 67.0267 51.852 67.8923 52.1178C68.7559 52.3609 69.6308 52.6031 70.517 52.8443C71.4258 53.0835 72.3208 53.1646 73.2019 53.0875C74.083 53.0104 74.6831 52.8441 75.0023 52.5885C75.3214 52.3329 75.4642 52.0131 75.4306 51.629C75.391 51.1771 75.1212 50.8251 74.621 50.5729C74.1209 50.3207 73.5024 50.1471 72.7656 50.0522L71.0694 49.7909C69.3168 49.5344 67.7409 49.217 66.3418 48.8385C64.9408 48.4375 63.8083 47.8536 62.9444 47.0868C62.1012 46.2955 61.6173 45.1881 61.4927 43.7648C61.3564 42.2059 61.6749 40.9031 62.4485 39.8565C63.22 38.7873 64.3203 37.9625 65.7493 37.3822C67.1783 36.8018 68.7966 36.4326 70.604 36.2744C72.4566 36.1124 74.1001 36.1621 75.5345 36.4236C76.9689 36.6851 78.1018 37.1438 78.9332 37.7996C79.7872 38.4534 80.2597 39.2999 80.3506 40.3392C80.4474 41.4462 80.2185 42.3428 79.6639 43.0287C79.1298 43.6901 78.3658 44.0643 77.3717 44.1513C76.7165 44.2086 76.0175 44.1559 75.2747 43.9933C74.5546 43.8286 73.7903 43.6792 72.9817 43.545C72.1938 43.3863 71.3592 43.3455 70.4781 43.4226C69.6874 43.4918 69.0995 43.6684 68.7146 43.9525C68.3277 44.214 68.151 44.5368 68.1846 44.9209C68.2261 45.3954 68.5279 45.7218 69.0899 45.9003C69.6519 46.0788 70.568 46.2718 71.8383 46.4794L73.7747 46.754C75.3672 47.0017 76.7746 47.3452 77.9969 47.7847C79.2192 48.2241 80.1964 48.8557 80.9287 49.6796C81.661 50.5034 82.0894 51.6269 82.2139 53.0503C82.3642 54.7674 82.08 56.2037 81.3616 57.3593C80.6411 58.4924 79.5797 59.3707 78.1772 59.9942C76.7747 60.6178 75.102 61.0145 73.159 61.1845ZM85.7407 42.702C84.6111 42.8008 83.6561 42.5542 82.8758 41.9623C82.1181 41.3684 81.6888 40.4953 81.588 39.343C81.4892 38.2134 81.7264 37.282 82.2998 36.5489C82.8937 35.7912 83.8232 35.357 85.0884 35.2463L99.6948 33.9684C100.96 33.8577 101.94 34.1249 102.633 34.7699C103.348 35.3904 103.755 36.2654 103.853 37.3951C103.954 38.5473 103.672 39.4827 103.006 40.2011C102.363 40.9176 101.477 41.3252 100.347 41.4241C99.579 41.4913 98.9507 41.4666 98.4624 41.3499C97.9948 41.2087 97.6042 41.038 97.2907 40.8377C96.9753 40.6149 96.6751 40.4363 96.3901 40.3019C96.1032 40.1448 95.7564 40.0841 95.3497 40.1197L95.0981 40.7564C95.2062 40.9518 95.3901 41.2317 95.6496 41.596C95.9072 41.9377 96.1683 42.4499 96.4329 43.1325C96.6955 43.7925 96.8782 44.7099 96.981 45.8847L97.8379 55.6788C97.9189 56.6051 97.6359 57.4039 96.9889 58.0752C96.3645 58.7445 95.5552 59.1227 94.5611 59.2096C93.5445 59.2986 92.6592 59.0687 91.9055 58.52C91.1743 57.9692 90.7682 57.2307 90.6872 56.3044L89.8303 46.5103C89.7275 45.3355 89.7481 44.4003 89.8922 43.7047C90.0342 42.9865 90.2024 42.4368 90.3967 42.0556C90.6117 41.6497 90.7554 41.3412 90.828 41.13L90.4357 40.5496C90.0291 40.5852 89.6981 40.7052 89.4428 40.9097C89.1855 41.0915 88.9209 41.3196 88.6489 41.5938C88.3749 41.8454 88.02 42.0814 87.5839 42.3017C87.1459 42.4993 86.5315 42.6328 85.7407 42.702ZM110.259 57.9045C109.22 57.9954 108.345 57.7533 107.635 57.178C106.924 56.6027 106.526 55.8293 106.441 54.8578L104.873 36.9303C104.786 35.9362 105.029 35.0725 105.602 34.3394C106.198 33.6043 107.027 33.1903 108.089 33.0974C109.219 32.9986 110.129 33.2604 110.821 33.8828C111.534 34.4807 111.933 35.2654 112.018 36.2369L113.592 54.2322C113.677 55.2037 113.397 56.0364 112.752 56.7303C112.129 57.4222 111.299 57.8136 110.259 57.9045ZM119.518 57.0262C118.344 57.1289 117.443 56.8548 116.817 56.2039C116.191 55.5529 115.826 54.64 115.724 53.4652L114.342 37.6727C114.192 35.9556 114.544 34.6499 115.399 33.7555C116.277 32.8591 117.371 32.3536 118.682 32.2389C119.924 32.1302 121.01 32.445 121.94 33.1832C122.892 33.9195 123.649 35.151 124.21 36.8776L127.858 48.1349L128.739 48.0578L130.378 36.338C130.63 34.5402 131.161 33.196 131.971 32.3056C132.804 31.4132 133.842 30.9126 135.084 30.8039C136.395 30.6893 137.548 30.9981 138.546 31.7304C139.566 32.4607 140.151 33.6844 140.301 35.4015L141.683 51.194C141.786 52.3689 141.574 53.3322 141.048 54.0839C140.544 54.8337 139.705 55.26 138.53 55.3628C137.401 55.4617 136.5 55.1876 135.829 54.5405C135.158 53.8935 134.771 52.9826 134.668 51.8078L133.87 42.6915C133.851 42.4656 133.799 42.2652 133.715 42.0904C133.652 41.891 133.497 41.8022 133.248 41.8239C133.045 41.8417 132.907 41.9562 132.834 42.1675C132.76 42.3561 132.71 42.5654 132.684 42.7953L132.144 51.4481C132.066 52.3882 131.945 53.2071 131.778 53.9046C131.632 54.5776 131.349 55.1146 130.929 55.5157C130.506 55.8941 129.866 56.1209 129.007 56.196C128.172 56.2691 127.501 56.157 126.997 55.8596C126.514 55.5376 126.131 55.0589 125.847 54.4235C125.585 53.7635 125.345 52.9763 125.128 52.0618L123.06 43.6373C123.017 43.4134 122.943 43.215 122.837 43.0421C122.729 42.8467 122.562 42.7589 122.336 42.7786C122.11 42.7984 121.972 42.9129 121.922 43.1222C121.87 43.3088 121.854 43.5151 121.873 43.7411L122.671 52.8574C122.774 54.0322 122.551 54.9965 122.002 55.7502C121.476 56.502 120.648 56.9273 119.518 57.0262ZM155.148 54.0114C152.73 54.2229 150.639 53.8709 148.874 52.9553C147.11 52.0397 145.716 50.6818 144.693 48.8817C143.671 47.0816 143.053 44.9615 142.839 42.5215C142.628 40.104 142.869 37.9201 143.564 35.9698C144.256 33.9969 145.392 32.4063 146.971 31.1982C148.548 29.9675 150.545 29.2464 152.963 29.0349C155.38 28.8234 157.461 29.1877 159.205 30.1279C160.97 31.0435 162.365 32.4126 163.389 34.2353C164.412 36.0354 165.029 38.1442 165.24 40.5617C165.454 43.0017 165.213 45.1969 164.519 47.1472C163.824 49.0976 162.688 50.6768 161.109 51.8849C159.552 53.0911 157.565 53.7999 155.148 54.0114ZM147.062 41.6057C147.123 42.3061 147.351 42.9577 147.745 43.5607C148.137 44.141 148.847 44.5798 149.875 44.8769C150.901 45.1514 152.397 45.2027 154.362 45.0307C156.328 44.8587 157.78 44.5495 158.72 44.103C159.681 43.632 160.304 43.0766 160.589 42.437C160.873 41.7747 160.984 41.0934 160.923 40.393C160.859 39.67 160.634 39.041 160.245 38.5058C159.855 37.948 159.148 37.5432 158.124 37.2912C157.121 37.0147 155.637 36.9625 153.671 37.1344C151.706 37.3064 150.242 37.6166 149.279 38.0651C148.315 38.491 147.689 39.0124 147.401 39.6295C147.112 40.224 146.999 40.8827 147.062 41.6057ZM171.577 52.4716C170.448 52.5704 169.558 52.2954 168.91 51.6464C168.261 50.9974 167.885 50.0855 167.782 48.9106L166.392 33.0164C166.289 31.8416 166.421 30.8739 166.787 30.1134C167.173 29.3283 167.702 28.7356 168.373 28.3355C169.066 27.9333 169.831 27.6957 170.667 27.6225C171.909 27.5138 172.989 27.7495 173.904 28.3296C174.82 28.9097 175.588 30.0036 176.206 31.6114L180.96 43.7964L181.503 43.749L180.364 30.7354C180.259 29.538 180.482 28.5737 181.033 27.8425C181.582 27.0888 182.421 26.6625 183.551 26.5636C184.725 26.4609 185.626 26.7349 186.252 27.3859C186.899 28.0123 187.275 28.9242 187.379 30.1217L188.719 45.4397C188.885 47.3375 188.59 48.7749 187.833 49.7517C187.076 50.7286 185.941 51.2832 184.427 51.4157C182.891 51.5501 181.658 51.2482 180.728 50.5099C179.799 49.7717 179.039 48.6316 178.448 47.0896L175.322 39.065C175.257 38.843 175.149 38.6476 174.997 38.4787C174.866 38.2852 174.699 38.1974 174.496 38.2152C174.248 38.2369 174.087 38.3534 174.014 38.5647C173.94 38.7533 173.912 38.9606 173.932 39.1865L174.73 48.3028C174.833 49.4776 174.621 50.4409 174.095 51.1927C173.569 51.9445 172.729 52.3708 171.577 52.4716ZM194.884 50.5008C193.844 50.5918 192.97 50.3496 192.259 49.7743C191.548 49.199 191.151 48.4256 191.066 47.4541L189.497 29.5266C189.41 28.5325 189.653 27.6689 190.227 26.9357C190.823 26.2006 191.652 25.7866 192.713 25.6937C193.843 25.5949 194.754 25.8567 195.446 26.4791C196.158 27.077 196.557 27.8617 196.642 28.8332L198.216 46.8285C198.301 47.8 198.021 48.6327 197.376 49.3266C196.754 50.0185 195.923 50.4099 194.884 50.5008ZM203.1 49.7137C201.567 49.6202 200.524 49.0171 199.971 47.9044C199.416 46.7691 199.377 45.2813 199.854 43.4411L203.215 30.3412C203.519 29.1308 203.894 28.0849 204.341 27.2035C204.81 26.3201 205.42 25.6179 206.171 25.0968C206.945 24.5738 207.931 24.2599 209.128 24.1551C210.936 23.997 212.335 24.3755 213.325 25.2905C214.339 26.2035 215.227 27.5145 215.992 29.2234L221.543 41.5436C222.332 43.2731 222.574 44.743 222.27 45.9534C221.987 47.1393 221.087 47.9124 219.571 48.2727C218.342 48.5396 217.245 48.4876 216.279 48.1168C215.335 47.744 214.729 47.0572 214.459 46.0563C214.264 45.3904 214.192 44.8275 214.243 44.3677C214.317 43.906 214.387 43.5356 214.453 43.2566C214.501 43.0247 214.483 42.8101 214.397 42.6127C214.332 42.3907 214.153 42.2926 213.859 42.3183L207.556 42.8698C207.262 42.8955 207.091 43.0242 207.043 43.2561C207.016 43.4634 207.057 43.676 207.167 43.8941C207.281 44.1573 207.403 44.5109 207.533 44.9548C207.663 45.3988 207.701 45.9646 207.647 46.6522C207.556 47.6847 207.089 48.4655 206.247 48.9944C205.406 49.5234 204.357 49.7631 203.1 49.7137ZM212.8 37.6301L210.554 32.2603C210.49 32.0383 210.396 31.8758 210.273 31.7727C210.171 31.645 210.006 31.5911 209.781 31.6108C209.555 31.6306 209.391 31.7132 209.29 31.8587C209.209 31.9795 209.145 32.1559 209.097 32.3878L207.852 38.063L212.8 37.6301ZM222.511 26.4675C222.421 25.4282 222.667 24.5985 223.25 23.9783C223.854 23.3335 224.664 22.9667 225.681 22.8777C226.742 22.7848 227.615 23.0044 228.299 23.5365C228.981 24.046 229.368 24.8204 229.459 25.8596L230.722 40.2966C230.759 40.7258 230.899 41.021 231.141 41.1819C231.381 41.3203 231.747 41.2199 232.241 40.8808C233.314 40.1267 234.274 39.5191 235.121 39.058C235.967 38.5742 236.92 38.2859 237.982 38.193C239.451 38.0645 240.592 38.3517 241.404 39.0546C242.217 39.7576 242.678 40.7304 242.787 41.973C242.903 43.306 242.586 44.3695 241.836 45.1637C241.109 45.9558 239.864 46.429 238.102 46.5832L231.12 47.1939C229.629 47.3244 228.372 47.2637 227.348 47.0117C226.322 46.7372 225.509 46.1595 224.909 45.2787C224.33 44.3959 223.964 43.0733 223.81 41.3111L222.511 26.4675ZM255.05 45.2711C253.785 45.3818 252.498 45.3692 251.188 45.2333C249.899 45.0729 248.691 44.7916 247.563 44.3895C246.456 43.9627 245.543 43.4165 244.824 42.7509C244.104 42.0626 243.701 41.2327 243.616 40.2612C243.507 39.0186 243.816 37.9899 244.541 37.1752C245.267 36.3604 246.163 35.9292 247.228 35.8815C248.066 35.8309 248.918 35.9386 249.784 36.2043C250.647 36.4475 251.522 36.6897 252.408 36.9309C253.317 37.1701 254.212 37.2511 255.093 37.174C255.974 37.097 256.575 36.9306 256.894 36.675C257.213 36.4195 257.356 36.0996 257.322 35.7155C257.282 35.2637 257.013 34.9117 256.512 34.6595C256.012 34.4073 255.394 34.2337 254.657 34.1388L252.961 33.8774C251.208 33.621 249.632 33.3035 248.233 32.9251C246.832 32.524 245.7 31.9401 244.836 31.1734C243.993 30.382 243.509 29.2747 243.384 27.8513C243.248 26.2924 243.566 24.9896 244.34 23.943C245.111 22.8738 246.212 22.0491 247.641 21.4687C249.07 20.8884 250.688 20.5191 252.495 20.361C254.348 20.1989 255.992 20.2486 257.426 20.5102C258.86 20.7717 259.993 21.2304 260.825 21.8861C261.679 22.5399 262.151 23.3865 262.242 24.4257C262.339 25.5328 262.11 26.4293 261.555 27.1153C261.021 27.7767 260.257 28.1509 259.263 28.2379C258.608 28.2952 257.909 28.2425 257.166 28.0798C256.446 27.9152 255.682 27.7658 254.873 27.6316C254.085 27.4729 253.251 27.4321 252.37 27.5091C251.579 27.5783 250.991 27.755 250.606 28.0391C250.219 28.3006 250.042 28.6234 250.076 29.0075C250.118 29.4819 250.419 29.8084 250.981 29.9869C251.543 30.1654 252.459 30.3584 253.73 30.566L255.666 30.8405C257.259 31.0882 258.666 31.4318 259.888 31.8712C261.111 32.3107 262.088 32.9423 262.82 33.7661C263.552 34.5899 263.981 35.7135 264.105 37.1369C264.256 38.8539 263.971 40.2903 263.253 41.4459C262.533 42.5789 261.471 43.4572 260.069 44.0808C258.666 44.7043 256.993 45.1011 255.05 45.2711Z" fill="#040404"/>
<path d="M13.7644 26.5844C13.835 27.3922 14.5471 27.9897 15.3549 27.919L127.52 18.1058C128.328 18.0351 128.926 17.323 128.855 16.5153L128.742 15.2289C128.672 14.4212 129.269 13.7091 130.077 13.6384L140.315 12.7428C141.122 12.6721 141.834 13.2696 141.905 14.0773L142.018 15.3637C142.088 16.1714 142.8 16.769 143.608 16.6983L264.522 6.11974C265.329 6.04907 265.927 5.33698 265.856 4.52924L265.742 3.22828C265.672 2.42054 266.269 1.70845 267.077 1.63778L277.314 0.742116C278.122 0.671448 278.834 1.26896 278.905 2.0767L279.801 12.3142C279.871 13.122 279.274 13.8341 278.466 13.9047L277.583 13.9819C276.776 14.0526 276.178 14.7647 276.249 15.5724L279.192 49.2108C279.262 50.0186 279.975 50.6161 280.782 50.5454L281.665 50.4682C282.473 50.3975 283.185 50.995 283.255 51.8028L284.151 62.0403C284.222 62.848 283.624 63.5601 282.816 63.6308L272.579 64.5265C271.771 64.5971 271.059 63.9996 270.988 63.1919L270.8 61.0416C270.73 60.2339 270.018 59.6364 269.21 59.707L148.296 70.2856C147.489 70.3563 146.891 71.0683 146.962 71.8761L147.151 74.0409C147.222 74.8487 146.624 75.5608 145.817 75.6314L135.579 76.5271C134.771 76.5978 134.059 76.0003 133.989 75.1925L133.799 73.0277C133.729 72.2199 133.016 71.6224 132.209 71.6931L19.3116 81.5703C18.5038 81.641 17.9063 82.3531 17.977 83.1608L18.0871 84.419C18.1577 85.2267 17.5602 85.9388 16.7525 86.0095L6.51494 86.9051C5.7072 86.9758 4.99511 86.3783 4.92444 85.5705L4.02878 75.333C3.95811 74.5253 4.55562 73.8132 5.36336 73.7425L7.5574 73.5506C8.36514 73.4799 8.96265 72.7678 8.89198 71.9601L6.01293 39.0523C5.94226 38.2445 5.23017 37.647 4.42243 37.7177L2.95997 37.8457C2.15223 37.9163 1.44015 37.3188 1.36948 36.5111L0.473809 26.2735C0.403141 25.4658 1.00066 24.7537 1.80839 24.683L12.0459 23.7874C12.8537 23.7167 13.5658 24.3142 13.6364 25.122L13.7644 26.5844ZM135.992 72.8213C136.062 73.621 136.767 74.2126 137.566 74.1427L143.445 73.6283C144.245 73.5584 144.837 72.8533 144.767 72.0536C144.697 71.2538 143.992 70.6622 143.192 70.7322L137.313 71.2465C136.513 71.3165 135.922 72.0215 135.992 72.8213ZM279.899 57.2981C279.97 58.1058 279.372 58.8179 278.565 58.8886L274.307 59.2611C273.511 59.3307 272.923 60.0322 272.992 60.8279C273.062 61.6237 273.763 62.2123 274.559 62.1427L280.431 61.629C281.238 61.5583 281.836 60.8462 281.765 60.0385L281.196 53.5329C281.157 53.0872 280.764 52.7575 280.319 52.7965C279.873 52.8355 279.543 53.2284 279.582 53.6741L279.899 57.2981ZM6.92628 83.1848C6.99695 83.9926 7.70904 84.5901 8.51678 84.5194L14.8346 83.9667C15.384 83.9186 15.7903 83.4343 15.7423 82.8849C15.6942 82.3355 15.2099 81.9292 14.6605 81.9772L11.2681 82.274C10.4603 82.3447 9.74824 81.7472 9.67758 80.9394L9.33982 77.0789C9.26916 76.2712 8.55693 75.6737 7.74919 75.7443C6.94146 75.815 6.34381 76.5271 6.41448 77.3348L6.92628 83.1848ZM11.6794 78.5537C11.7501 79.3615 12.4622 79.959 13.2699 79.8883L14.0008 79.8244C14.8085 79.7537 15.406 79.0416 15.3354 78.2339L15.1895 76.5671C15.1189 75.7594 14.4068 75.1619 13.5991 75.2325L12.8682 75.2965C12.0604 75.3671 11.4629 76.0792 11.5336 76.887L11.6794 78.5537ZM14.5321 35.3595C14.6028 36.1672 14.0052 36.8793 13.1975 36.95L9.54128 37.2699C8.73354 37.3405 8.13603 38.0526 8.20669 38.8604L11.0858 71.7681C11.1564 72.5759 11.8685 73.1734 12.6762 73.1027L15.6009 72.8468C16.4086 72.7762 17.1207 73.3737 17.1914 74.1814L17.5291 78.0419C17.5998 78.8497 18.3119 79.4472 19.1196 79.3765L132.017 69.4993C132.825 69.4286 133.422 68.7166 133.351 67.9088L133.093 64.955C133.022 64.1472 133.62 63.4352 134.428 63.3645L144.665 62.4688C145.473 62.3982 146.185 62.9957 146.256 63.8034L146.514 66.7572C146.585 67.565 147.297 68.1625 148.104 68.0918L269.018 57.5133C269.826 57.4426 270.423 56.7305 270.352 55.9228L270.093 52.9544C270.022 52.1466 270.62 51.4345 271.427 51.3639L275.663 50.9932C276.471 50.9226 277.069 50.2105 276.998 49.4028L274.055 15.7644C273.984 14.9566 273.272 14.3591 272.464 14.4298L268.228 14.8004C267.421 14.8711 266.709 14.2735 266.638 13.4658L266.304 9.64809C266.233 8.84035 265.521 8.24284 264.713 8.31351L143.8 18.8921C142.992 18.9627 142.395 19.6748 142.465 20.4826L142.801 24.3149C142.871 25.1226 142.274 25.8347 141.466 25.9054L131.229 26.801C130.421 26.8717 129.709 26.2742 129.638 25.4664L129.303 21.6341C129.232 20.8264 128.52 20.2289 127.712 20.2996L15.5468 30.1128C14.7391 30.1834 14.1415 30.8955 14.2122 31.7033L14.5321 35.3595ZM135.545 67.7169C135.616 68.5246 136.328 69.1221 137.136 69.0515L142.986 68.5397C143.793 68.469 144.391 67.7569 144.32 66.9492L144.254 66.1891C144.183 65.3814 143.471 64.7839 142.663 64.8545L136.813 65.3663C136.005 65.437 135.408 66.1491 135.479 66.9568L135.545 67.7169ZM272.546 55.7308C272.617 56.5386 273.329 57.1361 274.137 57.0654L276.179 56.8868C276.987 56.8161 277.584 56.104 277.514 55.2963L277.446 54.5216C277.375 53.7139 276.663 53.1164 275.855 53.187L273.813 53.3657C273.005 53.4364 272.408 54.1485 272.478 54.9562L272.546 55.7308ZM131.64 23.0807C131.711 23.8885 132.423 24.486 133.23 24.4153L139.08 23.9035C139.888 23.8329 140.486 23.1208 140.415 22.313L140.272 20.6745C140.201 19.8667 139.489 19.2692 138.681 19.3399L132.831 19.8517C132.023 19.9224 131.426 20.6345 131.497 21.4422L131.64 23.0807ZM268.64 11.0801C268.71 11.8879 269.423 12.4854 270.23 12.4147L272.273 12.236C273.08 12.1654 273.678 11.4533 273.607 10.6455L273.465 9.02158C273.394 8.21384 272.682 7.61632 271.875 7.68699L269.832 7.86567C269.025 7.93633 268.427 8.64842 268.498 9.45616L268.64 11.0801ZM268.089 4.78372C268.138 5.34491 268.633 5.76005 269.194 5.71095L273.876 5.30129C274.684 5.23063 275.396 5.82814 275.467 6.63588L275.858 11.1092C275.897 11.5548 276.29 11.8845 276.736 11.8455C277.182 11.8065 277.511 11.4136 277.472 10.968L276.903 4.4624C276.832 3.65466 276.12 3.05714 275.313 3.12781L269.016 3.67868C268.455 3.72778 268.04 4.22252 268.089 4.78372ZM7.75885 33.7415C7.82952 34.5492 8.54161 35.1468 9.34935 35.0761L10.8118 34.9481C11.6195 34.8775 12.2171 34.1654 12.1464 33.3576L12.0184 31.8952C11.9478 31.0875 11.2357 30.4899 10.4279 30.5606L8.96549 30.6886C8.15775 30.7592 7.56024 31.4713 7.6309 32.2791L7.75885 33.7415ZM3.40331 34.491C3.45631 35.0968 3.99036 35.5449 4.59616 35.4919C5.20195 35.4389 5.65008 34.9049 5.59708 34.2991L5.24521 30.2772C5.17454 29.4695 5.77205 28.7574 6.57979 28.6867L10.6017 28.3348C11.2075 28.2818 11.6556 27.7478 11.6026 27.142C11.5496 26.5362 11.0155 26.0881 10.4097 26.1411L4.19409 26.6849C3.38635 26.7555 2.78884 27.4676 2.85951 28.2754L3.40331 34.491ZM131.088 16.7771C131.137 17.3342 131.628 17.7464 132.186 17.6976L138.943 17.1064C139.5 17.0577 139.912 16.5665 139.864 16.0093C139.815 15.4522 139.324 15.04 138.766 15.0888L132.009 15.68C131.452 15.7287 131.04 16.2199 131.088 16.7771Z" fill="#FDC316"/>
</svg>
